# xmcd
#
# Track frame offsets: 
#        182
#        17277
#        38597
#        59522
#        78305
#        103020
#        127057
#        146997
#        163912
#        185040
#        205850
#        228157
#        250227
#
# Disc length: 3614 seconds
#
# Revision: 3
# Processed by: cddbd v1.5.2PL0 Copyright (c) Steve Scherf et al.
# Submitted via: ExactAudioCopyFreeDBPlugin 1.0
#
DISCID=b30e1c0d
DTITLE=Y?N-Vee - Y?N-Vee
DYEAR=1994
DGENRE=Rap
TTITLE0=Even When U Sleep
TTITLE1=All I Wanna Do
TTITLE2=4 Play
TTITLE3=I'm Goin' Down
TTITLE4=Sceamin'
TTITLE5=Sonshine's Groove
TTITLE6=Chocolate
TTITLE7=Stra8 Hustler
TTITLE8=Tricks-N-Trainin'
TTITLE9=Y?N-Vee
TTITLE10=Real G
TTITLE11=Gangsta's Prayer
TTITLE12=We Got A Good Thing
EXTD=www.RapMusicGuide.com
EXTT0=
EXTT1=
EXTT2=
EXTT3=
EXTT4=
EXTT5=
EXTT6=
EXTT7=
EXTT8=
EXTT9=
EXTT10=
EXTT11=
EXTT12=
PLAYORDER=
